<svg width="41" height="41" viewBox="0 0 41 41" fill="none" xmlns="http://www.w3.org/2000/svg">
<path d="M39.6146 32.3885C24.017 23.7953 28.4296 9.07653 33.0323 2.04631C33.282 1.66489 33.1869 1.14986 32.8076 0.896989C32.3871 0.616725 31.8113 0.797234 31.5966 1.25466C24.0895 17.2543 9.05291 13.2345 1.70814 8.80241C1.31159 8.56312 0.793192 8.66885 0.536279 9.05422C0.252475 9.47993 0.419193 10.0621 0.871501 10.3013C15.7006 18.1416 12.0421 32.5996 7.94352 39.629C7.70395 40.0399 7.81609 40.5694 8.21183 40.8332C8.63669 41.1164 9.21806 40.966 9.4787 40.5269C18.5952 25.1685 31.9887 29.4287 38.513 34.1067C39.0325 34.4792 39.771 34.3167 40.0569 33.7448C40.3023 33.2541 40.0951 32.6533 39.6146 32.3885Z" fill="white"/>
</svg>
