<svg width="53" height="37" viewBox="0 0 53 37" fill="none" xmlns="http://www.w3.org/2000/svg">
<path d="M49.9193 18.7198L46.1344 30.6881L26.3918 34.0638L6.03535 30.6881L2.55737 18.7198L6.03535 5.83077L26.3918 2.45508L46.1344 5.83077L49.9193 18.7198Z" stroke="white"/>
<path d="M39 13L46 6" stroke="white"/>
<path d="M13 24L6 31" stroke="white"/>
<path d="M13 13L6 6" stroke="white"/>
<path d="M39 24L46 31" stroke="white"/>
<line x1="26.687" y1="2.45508" x2="26.687" y2="10.2294" stroke="white"/>
<line x1="26.687" y1="26.1871" x2="26.687" y2="33.9614" stroke="white"/>
<line x1="42.145" y1="18.322" x2="49.9193" y2="18.322" stroke="white"/>
<line x1="2.65967" y1="18.322" x2="10.434" y2="18.322" stroke="white"/>
<circle cx="46.4411" cy="5.5239" r="1.6367" fill="white"/>
<circle cx="46.4411" cy="31.7109" r="1.6367" fill="white"/>
<circle cx="26.187" cy="34.9844" r="1.6367" fill="white"/>
<circle cx="26.187" cy="1.6367" r="1.6367" fill="white"/>
<circle cx="1.6367" cy="18.822" r="1.6367" fill="white"/>
<circle cx="50.7375" cy="18.822" r="1.6367" fill="white"/>
<circle cx="5.72849" cy="5.5239" r="1.6367" fill="white"/>
<circle cx="5.72849" cy="31.7109" r="1.6367" fill="white"/>
<rect x="10.0249" y="9.82019" width="32.1202" height="16.367" rx="8" fill="white"/>
<path d="M18.5596 21V20.232H19.3116V16.168H18.5596V15.4H20.7996C21.5463 15.4 22.1169 15.5893 22.5116 15.968C22.9116 16.3467 23.1116 16.9173 23.1116 17.68V18.728C23.1116 19.4907 22.9116 20.0613 22.5116 20.44C22.1169 20.8133 21.5463 21 20.7996 21H18.5596ZM20.1836 20.216H20.8076C21.2929 20.216 21.6529 20.0933 21.8876 19.848C22.1223 19.6027 22.2396 19.2373 22.2396 18.752V17.648C22.2396 17.1573 22.1223 16.792 21.8876 16.552C21.6529 16.312 21.2929 16.192 20.8076 16.192H20.1836V20.216ZM23.6094 21L25.2094 15.4H26.7294L28.3214 21H27.4334L27.0654 19.68H24.8734L24.5054 21H23.6094ZM25.0894 18.88H26.8494L26.0334 15.936H25.9054L25.0894 18.88ZM31.1216 21.112C30.4336 21.112 29.8869 20.92 29.4816 20.536C29.0763 20.1467 28.8736 19.5867 28.8736 18.856V17.544C28.8736 16.8133 29.0763 16.256 29.4816 15.872C29.8869 15.4827 30.4336 15.288 31.1216 15.288C31.8096 15.288 32.3563 15.4827 32.7616 15.872C33.1723 16.256 33.3776 16.8133 33.3776 17.544V18.856C33.3776 19.5867 33.1723 20.1467 32.7616 20.536C32.3563 20.92 31.8096 21.112 31.1216 21.112ZM31.1216 20.336C31.5643 20.336 31.9056 20.208 32.1456 19.952C32.3856 19.6907 32.5056 19.336 32.5056 18.888V17.512C32.5056 17.064 32.3856 16.712 32.1456 16.456C31.9056 16.1947 31.5643 16.064 31.1216 16.064C30.6896 16.064 30.3509 16.1947 30.1056 16.456C29.8603 16.712 29.7376 17.064 29.7376 17.512V18.888C29.7376 19.336 29.8603 19.6907 30.1056 19.952C30.3509 20.208 30.6896 20.336 31.1216 20.336Z" fill="#3E3C41"/>
</svg>
