<svg width="144" height="25" viewBox="0 0 144 25" fill="none" xmlns="http://www.w3.org/2000/svg">
<path d="M1.11902 18.4319C1.27888 20.7978 3.21318 23.7712 6.50629 23.7712C8.76031 23.7712 10.1191 22.7321 11.0783 21.3893C11.2541 21.1495 11.6218 21.1175 11.8616 21.2614C11.9895 21.3413 12.0854 21.4692 12.1333 21.6131C12.1653 21.7569 12.1333 21.9168 12.0534 22.0447C11.1742 23.3555 9.31982 25.0181 6.42636 24.8742C4.30022 24.8742 2.74959 23.7552 1.61458 22.5403C0.703382 21.5491 0 19.8706 0 17.8564C0 15.8741 0.607466 14.2595 1.80641 13.0286C3.00536 11.7977 4.4441 10.9185 6.42636 10.9185C8.40862 10.9185 9.86334 11.6698 11.0143 12.9007C12.485 14.4833 12.8847 16.1139 12.9486 17.8244C12.9486 17.9843 12.9007 18.1281 12.7888 18.24C12.6769 18.3519 12.533 18.4159 12.3891 18.4159C9.81538 18.4319 1.11902 18.4319 1.11902 18.4319ZM6.42636 12.0215C4.95565 12.0375 3.8686 12.6769 2.92543 13.5082C1.98226 14.3395 1.34282 15.9061 1.18296 17.3608H11.6698C11.5898 15.9061 10.8864 14.5633 10.0392 13.6521C9.20791 12.7568 8.32869 12.0055 6.42636 12.0215Z" fill="white"/>
<path d="M53.0428 18.4317C53.1867 20.8136 55.137 23.771 58.4301 23.787C60.6841 23.787 62.0429 22.748 63.0021 21.4051C63.1779 21.1653 63.5456 21.1334 63.7854 21.2772C63.9133 21.3572 64.0092 21.4851 64.0572 21.6289C64.0891 21.7728 64.0572 21.9327 63.9772 22.0606C63.098 23.3714 61.2436 25.0339 58.3502 24.8901C56.2241 24.8901 54.6734 23.7711 53.5384 22.5561C52.6272 21.565 51.9238 19.8865 51.9238 17.8722C51.9238 15.89 52.5313 14.2754 53.7302 13.0445C54.9292 11.8136 56.3679 10.9343 58.3502 10.9343C60.3324 10.9343 61.7872 11.6857 62.9382 12.9166C64.4089 14.4992 64.8085 16.1298 64.8725 17.8403C64.8725 18.0001 64.8245 18.144 64.7126 18.2559C64.6007 18.3678 64.4568 18.4317 64.3129 18.4317C61.7232 18.4317 53.0428 18.4317 53.0428 18.4317ZM58.3502 12.0214C56.8795 12.0374 55.7924 12.6768 54.8493 13.5081C53.9061 14.3393 53.2667 15.906 53.1068 17.3607H63.5936C63.5136 15.906 62.8103 14.5631 61.963 13.6519C61.1158 12.7567 60.2525 12.0054 58.3502 12.0214Z" fill="white"/>
<path d="M85.1727 18.4317C85.3166 20.8136 87.2669 23.771 90.56 23.787C92.814 23.787 94.1728 22.748 95.132 21.4051C95.3078 21.1653 95.6755 21.1334 95.9153 21.2772C96.0432 21.3572 96.1391 21.4851 96.1871 21.6289C96.219 21.7728 96.1871 21.9327 96.1071 22.0606C95.2279 23.3714 93.3735 25.0339 90.4801 24.8901C88.3539 24.8901 86.8033 23.7711 85.6683 22.5561C84.7571 21.565 84.0537 19.8865 84.0537 17.8722C84.0537 15.89 84.6612 14.2754 85.8601 13.0445C87.0591 11.8136 88.4978 10.9343 90.4801 10.9343C92.4623 10.9343 93.9171 11.6857 95.068 12.9166C96.5388 14.4992 96.9384 16.1298 97.0023 17.8403C97.0023 18.0001 96.9544 18.144 96.8425 18.2559C96.7306 18.3678 96.5867 18.4317 96.4428 18.4317C93.8531 18.4317 85.1727 18.4317 85.1727 18.4317ZM90.4801 12.0214C89.0094 12.0374 87.9223 12.6768 86.9791 13.5081C86.036 14.3393 85.3965 15.906 85.2367 17.3607H95.7235C95.6435 15.906 94.9401 14.5631 94.0929 13.6519C93.2456 12.7567 92.3824 12.0054 90.4801 12.0214Z" fill="white"/>
<path d="M23.4674 12.2613V24.1869C23.4674 24.4746 23.2276 24.7144 22.9398 24.7144C22.6521 24.7144 22.4123 24.4746 22.4123 24.1869V12.2613H19.4229C19.1512 12.2613 18.9114 12.0375 18.9114 11.7498C18.9114 11.478 19.1352 11.2382 19.4229 11.2382H22.4123V6.82612C22.4123 6.53837 22.6521 6.29858 22.9398 6.29858H22.9558C23.2276 6.29858 23.4674 6.52239 23.4674 6.81014V11.2542H26.5527C26.8244 11.2542 27.0642 11.478 27.0642 11.7658C27.0642 12.0375 26.8404 12.2773 26.5527 12.2773H23.4674V12.2613Z" fill="white"/>
<path d="M40.3481 11.0943C38.2699 10.8065 36.2877 11.4939 34.9289 13.7479V0.511553C34.9289 0.239791 34.7051 0 34.4173 0H34.4013C34.1136 0 33.8738 0.239787 33.8738 0.527535V24.1868C33.8738 24.4745 34.1136 24.7143 34.4013 24.7143C34.6891 24.7143 34.9289 24.4745 34.9289 24.1868V16.1938C34.9289 13.9557 37.7744 11.5419 40.3481 12.1174C42.0106 12.485 43.6572 14.1316 43.6572 16.7693V24.1868C43.6572 24.4745 43.897 24.7143 44.1847 24.7143C44.4725 24.7143 44.7123 24.4745 44.7123 24.1868V16.7853C44.8561 14.5312 43.3055 11.4939 40.3481 11.0943Z" fill="white"/>
<path d="M108.511 24.9382C110.589 25.2259 112.572 24.5385 113.93 22.2845V24.1868C113.93 24.4586 114.154 24.6984 114.442 24.6984H114.458C114.746 24.6984 114.985 24.4586 114.985 24.1708V11.8457C114.985 11.5579 114.746 11.3181 114.458 11.3181C114.17 11.3181 113.93 11.5579 113.93 11.8457L113.994 18.3839C113.994 21.7729 111.357 24.4905 108.575 23.8991C106.913 23.5474 105.202 21.9168 105.202 19.2791V11.8616C105.202 11.5739 104.962 11.3341 104.675 11.3341C104.387 11.3341 104.147 11.5739 104.147 11.8616V19.2631C104.163 22.0127 105.57 24.5385 108.511 24.9382Z" fill="white"/>
<path d="M138.886 11.0942C136.84 10.8065 134.266 11.7017 133.179 14.5791C132.556 12.9166 131.133 11.366 129.103 11.0942C127.025 10.8065 125.026 11.4459 123.668 13.6839V11.7816C123.668 11.5098 123.444 11.27 123.156 11.27H123.14C122.852 11.27 122.613 11.5098 122.613 11.7976V24.1228C122.613 24.4105 122.852 24.6503 123.14 24.6503C123.428 24.6503 123.668 24.4105 123.668 24.1228L123.604 17.5845C123.604 14.1955 126.273 11.5418 129.039 12.1333C130.638 12.469 132.284 14.0036 132.412 16.4655V24.1228C132.412 24.1387 132.412 24.1547 132.412 24.1707C132.412 24.4585 132.732 24.6982 133.019 24.6982C133.307 24.6982 133.547 24.4585 133.547 24.1707V22.3803C133.547 21.2133 133.563 19.6627 133.563 18.4637C133.563 14.8029 135.209 11.5578 138.838 12.1173C140.517 12.3731 142.211 14.0996 142.211 16.7372V24.1547C142.211 24.4425 142.451 24.6823 142.739 24.6823C143.027 24.6823 143.266 24.4425 143.266 24.1547V16.7532C143.394 14.5312 141.828 11.4938 138.886 11.0942Z" fill="white"/>
<path d="M78.6047 11.8296C78.6047 11.6698 78.5408 11.5259 78.4129 11.414C78.285 11.3181 78.1251 11.3021 77.9653 11.3021C75.8072 11.3501 73.761 13.1245 73.2494 14.4673V11.7337C73.2494 11.462 73.0256 11.2222 72.7379 11.2222H72.7219C72.4341 11.2222 72.1943 11.462 72.1943 11.7497V24.0909C72.1943 24.3786 72.4341 24.6184 72.7219 24.6184C73.0096 24.6184 73.2494 24.3786 73.2494 24.0909L73.2814 17.9203C73.2814 14.9629 75.5674 12.4531 78.2051 12.3252C78.4289 12.3092 78.6047 12.0694 78.6047 11.8296Z" fill="white"/>
</svg>
