<svg width="108" height="21" viewBox="0 0 108 21" fill="none" xmlns="http://www.w3.org/2000/svg">
<path d="M7.98873 20.392C5.56207 20.392 3.62073 19.72 2.16473 18.376C0.727401 17.0133 0.00873441 15.0627 0.00873441 12.524V7.876C0.00873441 5.33733 0.727401 3.396 2.16473 2.052C3.62073 0.689332 5.56207 0.0079987 7.98873 0.0079987C10.4341 0.0079987 12.3754 0.689332 13.8127 2.052C15.2501 3.396 15.9687 5.33733 15.9687 7.876V12.524C15.9687 15.0627 15.2501 17.0133 13.8127 18.376C12.3754 19.72 10.4341 20.392 7.98873 20.392ZM7.98873 17.368C9.44473 17.368 10.5741 16.948 11.3767 16.108C12.1981 15.2493 12.6087 14.092 12.6087 12.636V7.764C12.6087 6.308 12.1981 5.16 11.3767 4.32C10.5741 3.46133 9.44473 3.032 7.98873 3.032C6.5514 3.032 5.42207 3.46133 4.60073 4.32C3.79807 5.16 3.39673 6.308 3.39673 7.764V12.636C3.39673 14.092 3.79807 15.2493 4.60073 16.108C5.42207 16.948 6.5514 17.368 7.98873 17.368ZM19.4639 20V6.168H22.6279V7.764H23.1039C23.3093 7.18533 23.6546 6.76533 24.1399 6.504C24.6253 6.24267 25.2039 6.112 25.8759 6.112H27.5559V8.968H25.8199C24.8866 8.968 24.1306 9.22 23.5519 9.724C22.9733 10.2093 22.6839 10.9653 22.6839 11.992V20H19.4639ZM35.5652 20.392C34.4452 20.392 33.3999 20.1213 32.4292 19.58C31.4586 19.02 30.6839 18.208 30.1052 17.144C29.5266 16.08 29.2372 14.8013 29.2372 13.308V12.86C29.2372 11.3667 29.5266 10.088 30.1052 9.024C30.6839 7.96 31.4492 7.15733 32.4012 6.616C33.3719 6.056 34.4266 5.776 35.5652 5.776C36.4239 5.776 37.1519 5.87867 37.7492 6.084C38.3466 6.28933 38.8226 6.55067 39.1772 6.868C39.5506 7.18533 39.8399 7.53067 40.0452 7.904H40.5212V0.399999H43.7132V20H40.5772V18.18H40.1012C39.7652 18.74 39.2519 19.2533 38.5612 19.72C37.8706 20.168 36.8719 20.392 35.5652 20.392ZM36.5172 17.592C37.6746 17.592 38.6359 17.2187 39.4012 16.472C40.1666 15.7067 40.5492 14.624 40.5492 13.224V12.944C40.5492 11.5253 40.1666 10.4427 39.4012 9.696C38.6546 8.94933 37.6932 8.576 36.5172 8.576C35.3599 8.576 34.3892 8.94933 33.6052 9.696C32.8399 10.4427 32.4572 11.5253 32.4572 12.944V13.224C32.4572 14.624 32.8399 15.7067 33.6052 16.472C34.3892 17.2187 35.3599 17.592 36.5172 17.592ZM47.792 20V6.168H51.012V20H47.792ZM49.388 4.404C48.8094 4.404 48.3054 4.21733 47.876 3.844C47.4654 3.452 47.26 2.93867 47.26 2.304C47.26 1.66933 47.4654 1.16533 47.876 0.791999C48.3054 0.399999 48.8094 0.204 49.388 0.204C50.004 0.204 50.508 0.399999 50.9 0.791999C51.3107 1.16533 51.516 1.66933 51.516 2.304C51.516 2.93867 51.3107 3.452 50.9 3.844C50.508 4.21733 50.004 4.404 49.388 4.404ZM55.0928 20V6.168H58.2568V8.1H58.7328C58.9755 7.57733 59.4142 7.08267 60.0488 6.616C60.6835 6.14933 61.6448 5.916 62.9328 5.916C63.9968 5.916 64.9395 6.15867 65.7608 6.644C66.5822 7.12933 67.2168 7.80133 67.6648 8.66C68.1315 9.51867 68.3648 10.536 68.3648 11.712V20H65.1448V11.964C65.1448 10.844 64.8648 10.0133 64.3048 9.472C63.7635 8.912 62.9888 8.632 61.9808 8.632C60.8422 8.632 59.9462 9.01467 59.2928 9.78C58.6395 10.5267 58.3128 11.6 58.3128 13V20H55.0928ZM76.6034 20.392C75.6327 20.392 74.7554 20.224 73.9714 19.888C73.1874 19.5333 72.5621 19.0293 72.0954 18.376C71.6474 17.7227 71.4234 16.92 71.4234 15.968C71.4234 15.0347 71.6474 14.2507 72.0954 13.616C72.5621 12.9813 73.1967 12.5053 73.9994 12.188C74.8021 11.852 75.7167 11.684 76.7434 11.684H80.7474V10.844C80.7474 10.116 80.5234 9.528 80.0754 9.08C79.6274 8.61333 78.9274 8.38 77.9754 8.38C77.0421 8.38 76.3327 8.604 75.8474 9.052C75.3807 9.48133 75.0727 10.0413 74.9234 10.732L71.9554 9.752C72.1794 9.024 72.5341 8.36133 73.0194 7.764C73.5234 7.16667 74.1861 6.69067 75.0074 6.336C75.8287 5.96267 76.8367 5.776 78.0314 5.776C79.8421 5.776 81.2607 6.23333 82.2874 7.148C83.3327 8.044 83.8554 9.35067 83.8554 11.068V16.5C83.8554 17.06 84.1167 17.34 84.6394 17.34H85.8154V20H83.5474C82.8754 20 82.3247 19.832 81.8954 19.496C81.4661 19.16 81.2514 18.7027 81.2514 18.124V18.068H80.7754C80.6634 18.3293 80.4674 18.6467 80.1874 19.02C79.9074 19.3933 79.4781 19.72 78.8994 20C78.3394 20.2613 77.5741 20.392 76.6034 20.392ZM77.1354 17.76C78.1994 17.76 79.0674 17.4613 79.7394 16.864C80.4114 16.248 80.7474 15.4267 80.7474 14.4V14.12H76.9394C76.2487 14.12 75.6887 14.2693 75.2594 14.568C74.8301 14.8667 74.6154 15.3053 74.6154 15.884C74.6154 16.444 74.8394 16.9013 75.2874 17.256C75.7354 17.592 76.3514 17.76 77.1354 17.76ZM88.4795 20V0.399999H91.6995V20H88.4795ZM101.492 20.392C99.7003 20.392 98.2257 20 97.0683 19.216C95.911 18.432 95.211 17.284 94.9683 15.772L97.9363 15.016C98.067 15.7253 98.3003 16.2853 98.6363 16.696C98.9723 17.1067 99.383 17.396 99.8683 17.564C100.372 17.732 100.914 17.816 101.492 17.816C102.37 17.816 103.023 17.6573 103.452 17.34C103.9 17.0227 104.124 16.6213 104.124 16.136C104.124 15.632 103.91 15.2587 103.48 15.016C103.07 14.7733 102.435 14.568 101.576 14.4L100.708 14.26C99.7563 14.0733 98.8883 13.8213 98.1043 13.504C97.3203 13.168 96.6857 12.72 96.2003 12.16C95.7337 11.5813 95.5003 10.8533 95.5003 9.976C95.5003 8.632 95.995 7.596 96.9843 6.868C97.9923 6.14 99.3083 5.776 100.932 5.776C102.482 5.776 103.76 6.12133 104.768 6.812C105.776 7.50267 106.43 8.42667 106.728 9.584L103.76 10.48C103.611 9.696 103.284 9.14533 102.78 8.828C102.276 8.492 101.66 8.324 100.932 8.324C100.186 8.324 99.607 8.45467 99.1963 8.716C98.8043 8.97733 98.6083 9.35067 98.6083 9.836C98.6083 10.3213 98.8137 10.6853 99.2243 10.928C99.635 11.1707 100.186 11.348 100.876 11.46L101.744 11.628C102.771 11.8147 103.695 12.0573 104.516 12.356C105.356 12.6547 106.019 13.084 106.504 13.644C106.99 14.204 107.232 14.96 107.232 15.912C107.232 17.3493 106.71 18.46 105.664 19.244C104.638 20.0093 103.247 20.392 101.492 20.392Z" fill="white"/>
</svg>
