<svg width="160" height="36" viewBox="0 0 160 36" fill="none" xmlns="http://www.w3.org/2000/svg">
<path fill-rule="evenodd" clip-rule="evenodd" d="M0.619798 0.784256C4.61522 5.6824 9.00202 11.8358 9.71163 12.8312C9.74945 12.8843 9.77661 12.9226 9.79311 12.9455C10.1713 13.4735 10.4836 13.866 10.7207 14.1641C11.2472 14.8259 11.4033 15.0222 11.0892 15.2026C10.8359 15.3481 10.5744 15.396 10.3136 15.396C10.0187 15.396 9.68631 15.2527 9.44438 15.0208C9.27327 14.8569 8.10297 13.1399 6.50913 10.6422C5.28968 8.73095 4.26916 7.14544 4.2415 7.11895C4.17702 7.05747 4.17819 7.05963 6.38484 11.0477C7.7704 13.5519 8.71828 15.4027 8.71828 15.521C8.71828 15.7619 8.65329 15.8885 8.35905 16.2198C7.86871 16.7724 7.64961 17.3932 7.49132 18.678C7.31405 20.1182 6.8152 21.1357 5.43296 22.8769C4.62388 23.8962 4.49143 24.083 4.28732 24.4939C4.03007 25.0112 3.95942 25.301 3.93077 25.9542C3.90044 26.645 3.95942 27.0912 4.16836 27.7515C4.3513 28.3297 4.54208 28.7116 5.03026 29.4752C5.45146 30.1339 5.69388 30.6236 5.69388 30.8152C5.69388 30.9677 5.72271 30.9679 6.37534 30.8191C7.93735 30.4627 9.20562 29.8362 9.9189 29.0683C10.3604 28.5929 10.4641 28.3305 10.4674 27.6792C10.4697 27.2532 10.4547 27.164 10.3408 26.9189C10.1552 26.5199 9.81743 26.1883 9.07283 25.6742C8.09697 25.0004 7.68026 24.458 7.56513 23.7121C7.47066 23.1001 7.58013 22.6683 8.11996 21.5256C8.67879 20.3428 8.81724 19.8388 8.91088 18.6465C8.97136 17.8763 9.055 17.5725 9.2741 17.3288C9.5027 17.0745 9.70847 16.9884 10.2738 16.9102C11.1958 16.7831 11.7828 16.542 12.2655 16.093C12.684 15.7034 12.8592 15.3279 12.8861 14.7627L12.9065 14.3345L12.6725 14.059C11.8255 13.0613 0.0524744 0 0.000323949 0C-0.0108392 0 0.267907 0.35289 0.619798 0.784256ZM6.16957 26.7358C6.36118 26.3931 6.25921 25.9527 5.93881 25.7375C5.63607 25.5342 5.16588 25.63 5.16588 25.8949C5.16588 25.9757 5.2102 26.0346 5.30984 26.0865C5.47795 26.1738 5.49011 26.272 5.35799 26.4726C5.22403 26.6759 5.23486 26.8545 5.38831 26.9758C5.63574 27.1715 5.98613 27.0639 6.16957 26.7358ZM11.9346 8.05166C11.5567 7.99234 11.5407 7.98535 11.7187 7.95785C12.0594 7.90487 12.8642 7.97701 13.4188 8.11014C14.7136 8.42104 15.8917 9.21746 17.1493 10.6317L17.4834 11.0074L17.9614 10.9299C19.9749 10.603 22.0233 10.8628 23.7366 11.6622C24.2079 11.8821 24.951 12.32 25.0439 12.4325C25.0733 12.4683 25.1278 12.699 25.1645 12.9455C25.2918 13.7974 25.2281 14.4505 24.97 14.9383C24.8298 15.2038 24.8219 15.2879 24.9162 15.5152C24.9915 15.6964 25.2016 15.8306 25.4097 15.8302C25.8354 15.8297 26.2936 15.1345 26.5061 14.1673L26.5904 13.783L26.7575 13.9741C27.6739 15.023 28.3938 16.4534 28.5174 17.4714L28.5496 17.7368L28.3956 17.4955C28.1304 17.0803 27.8641 16.7976 27.5229 16.5697C26.9081 16.1586 26.2578 16.0188 24.536 15.9272C22.9808 15.8444 22.1008 15.7103 21.228 15.4227C19.743 14.9337 18.9946 14.2824 17.2306 11.9449C16.4472 10.9068 15.963 10.3321 15.4812 9.86959C14.3868 8.81859 13.3113 8.26726 11.9346 8.05166ZM25.3946 10.3698C25.4337 9.67399 25.5272 9.21513 25.715 8.79609C25.7893 8.63014 25.8589 8.49452 25.8696 8.49452C25.8804 8.49452 25.8481 8.61682 25.7978 8.76644C25.6613 9.17314 25.6388 9.72947 25.733 10.3766C25.8523 11.198 25.9202 11.3163 26.7795 12.2035C27.1825 12.6196 27.6514 13.1442 27.8213 13.3697L28.1304 13.7792L27.8213 13.4865C27.4434 13.1284 26.5744 12.4301 26.3824 12.3305C26.2536 12.2635 26.2345 12.2647 26.1552 12.3445C26.082 12.418 26.0665 12.5286 26.0564 13.0509C26.0405 13.8653 25.9307 14.3882 25.6655 14.9107C25.522 15.1934 25.4994 15.1331 25.6292 14.8141C25.7261 14.5758 25.736 14.471 25.7353 13.6827C25.7338 12.0987 25.5475 11.718 24.4557 11.0657C24.1793 10.9004 23.7234 10.662 23.443 10.5359C23.1628 10.4099 22.94 10.3001 22.948 10.292C22.979 10.2608 24.0438 10.5747 24.4724 10.7413C25.1098 10.9889 25.215 11.0211 25.2924 10.9912C25.3443 10.9712 25.3694 10.8185 25.3946 10.3698ZM11.5296 9.15365C11.4268 10.3766 11.9014 12.0124 12.6687 13.0794C13.2635 13.9065 14.1856 14.5493 14.8664 14.6113C15.3119 14.6519 15.4458 14.511 15.2442 14.2136C14.9643 13.8007 14.6199 13.1649 14.5288 12.8926C14.4721 12.7235 14.3494 12.224 14.2555 11.7827C13.9355 10.2756 13.6207 9.68865 12.8943 9.24295C12.6294 9.0805 12.0639 8.8679 11.736 8.80742L11.5614 8.77527L11.5296 9.15365ZM24.464 21.0203C20.8783 19.5621 19.6154 18.2963 19.6154 16.1606C19.6154 15.8462 19.6262 15.5891 19.6392 15.5891C19.6524 15.5891 19.791 15.6929 19.9474 15.8197C20.6745 16.4087 21.4888 16.6603 23.7429 16.9924C25.0692 17.188 25.8156 17.3458 26.5042 17.5765C28.6927 18.3096 30.0468 19.7973 30.3697 21.8239C30.4635 22.4127 30.4085 23.5168 30.2564 24.0988C30.1363 24.5585 29.7697 25.3869 29.6726 25.4187C29.6456 25.4276 29.6191 25.3233 29.6123 25.1813C29.5754 24.4204 29.1947 23.6796 28.5554 23.1246C27.8285 22.4937 26.8518 21.9915 24.464 21.0203ZM21.7735 20.8598C21.8239 21.0113 21.9018 21.356 21.9467 21.6261C22.2339 23.3526 21.3367 24.7475 19.5914 25.288C19.4066 25.3451 18.6788 25.4891 17.9741 25.6075C16.5473 25.8474 15.9107 26.0174 15.2711 26.3286C14.8174 26.5494 14.268 26.88 14.3007 26.9128C14.3112 26.9234 14.4148 26.8985 14.5308 26.8573C15.3375 26.5712 16.2353 26.4231 17.5992 26.3515C18.1405 26.3231 18.7561 26.2778 18.9674 26.251C20.1825 26.0964 21.0248 25.7235 21.6797 25.0502C22.0441 24.6755 22.2614 24.3264 22.4365 23.8342C22.5475 23.522 22.5625 23.406 22.5633 22.8529C22.5643 22.2892 22.5508 22.1861 22.4305 21.8394C22.2731 21.3848 22.0873 21.0438 21.852 20.777L21.6821 20.5844L21.7735 20.8598ZM23.5905 24.5747C23.114 23.5402 23.0047 22.5415 23.2656 21.6101C23.2936 21.5105 23.3384 21.429 23.3655 21.429C23.3925 21.429 23.5048 21.4905 23.6153 21.5654C23.8347 21.7147 24.2751 21.9662 25.4481 22.6121C26.9119 23.4182 27.7465 24.0423 28.314 24.7556C28.811 25.3801 29.1186 26.0914 29.2665 26.9588C29.3505 27.4501 29.3014 28.6324 29.1766 29.1271C28.783 30.6871 27.8683 31.9124 26.5637 32.6275C26.3726 32.7321 26.201 32.8181 26.1823 32.8186C26.1638 32.8189 26.2335 32.6402 26.3371 32.4211C26.776 31.4944 26.826 30.593 26.4942 29.5898C26.291 28.9755 25.8768 28.2259 25.0404 26.9589C24.068 25.4861 23.8296 25.094 23.5905 24.5747ZM14.6166 27.9676C13.1087 28.215 11.4529 29.0211 10.1223 30.1559L9.72629 30.4938L10.0745 30.5488C11.8911 30.8352 12.3805 31.0893 13.6406 32.4006C14.3657 33.155 14.6106 33.323 15.2123 33.4781C16.0956 33.7058 16.9665 33.2873 17.2653 32.4912C17.3987 32.1355 17.3809 31.5465 17.2278 31.2508C16.8636 30.5465 15.8024 30.3189 15.2894 30.8347C14.8619 31.2644 14.9865 31.9117 15.518 32.023C15.6396 32.0487 15.6363 32.0432 15.487 31.975C15.2544 31.8687 15.1533 31.7215 15.1521 31.487C15.1491 30.9374 15.7719 30.6288 16.3511 30.8927C16.7753 31.0861 16.9437 31.3387 16.9437 31.7816C16.9437 32.4636 16.3691 32.9774 15.7004 32.8934C15.3429 32.8484 14.9057 32.6175 14.6714 32.3499C14.0816 31.6763 14.3114 30.6133 15.1348 30.2054C15.7617 29.895 16.5952 29.9715 17.2413 30.3989C17.9837 30.89 18.2995 31.3389 18.9389 32.8121C19.1472 33.2918 19.4151 33.8318 19.5342 34.0121C20.14 34.928 20.8658 35.3771 21.74 35.3771C22.2222 35.3771 22.585 35.2882 23.0413 35.0581C23.3804 34.887 23.8611 34.5619 23.8264 34.5271C23.8166 34.5172 23.6759 34.5614 23.5138 34.6252C22.5593 35.0013 21.5889 34.9754 21.0254 34.5587C20.6706 34.2965 20.3843 33.774 20.2372 33.1205C20.2117 33.0074 20.1277 32.5079 20.0504 32.0104C19.8545 30.7494 19.6664 30.1826 19.2277 29.5321C18.7788 28.8667 17.9159 28.3082 16.9512 28.0588C16.3494 27.9031 15.2667 27.8608 14.6166 27.9676ZM12.5046 18.2185C12.6347 17.7326 13.0554 17.2693 13.4883 17.135C13.7635 17.0497 14.3324 17.1042 14.5999 17.2415C15.1181 17.5077 15.4947 18.114 15.413 18.5517C15.3132 19.0854 14.4565 19.5124 13.4708 19.5194C12.9673 19.5229 12.7815 19.4546 12.5892 19.1954C12.4701 19.0347 12.4251 18.5149 12.5046 18.2185ZM14.4675 17.4317C14.7261 17.5912 14.7924 17.8269 14.6406 18.045C14.5358 18.1953 14.2117 18.3381 13.9748 18.3381C13.6189 18.3381 13.2307 18.0829 13.2307 17.8491C13.2307 17.3794 13.9753 17.128 14.4675 17.4317ZM91.7267 18.7766C90.9227 16.1021 92.2487 13.8835 95.0782 13.1707C95.8896 12.9661 99.564 13.0584 100.193 13.2992C100.425 13.3875 100.525 13.7262 100.528 14.4223C100.529 14.9705 100.589 15.6365 100.66 15.9019C100.768 16.3046 100.705 16.3837 100.28 16.3772C99.8962 16.3712 99.6639 16.1461 99.3395 15.465C98.8215 14.377 98.1942 14.0311 96.7325 14.0271C94.8664 14.0216 93.501 15.2781 93.7233 16.7961C93.8681 17.784 94.8551 18.756 97.0701 20.0922C99.1776 21.3633 100.408 22.4087 100.898 23.3452C102.208 25.8491 101.089 28.5286 98.1692 29.8787C96.6704 30.5716 94.1583 30.6433 92.3922 30.0435L91.2612 29.6593V27.8522C91.2612 26.2155 91.3002 26.0447 91.6733 26.0447C91.9853 26.0447 92.1201 26.251 92.2296 26.8971C92.5022 28.5038 93.7231 29.4791 95.4621 29.4791C97.1656 29.4791 98.3563 28.5484 98.8125 26.8608C99.0068 26.1419 98.9733 25.8768 98.5879 25.0837C98.1261 24.1328 97.3308 23.5018 94.6298 21.9437C93.1311 21.0789 92.0713 19.9228 91.7267 18.7766ZM38.7799 14.2384C38.4114 14.2384 38.2676 14.1179 38.2676 13.809C38.2676 13.4002 38.4114 13.3798 41.2993 13.3798C43.9798 13.3798 44.3228 13.4202 44.2614 13.7277C44.2229 13.9193 43.8525 14.1847 43.4378 14.318L42.6837 14.5603L42.6194 20.0343C42.5762 23.6868 42.6369 25.7938 42.8013 26.3666C43.2903 28.0703 44.782 29.0499 46.8867 29.0499C48.3519 29.0499 49.2078 28.7074 50.2832 27.69C51.4398 26.5964 51.6242 25.5572 51.6206 20.1562C51.6171 14.8287 51.5243 14.389 50.3801 14.2786C49.8595 14.2281 49.685 14.1069 49.685 13.7955C49.685 13.4073 49.8568 13.3798 52.27 13.3798C54.7114 13.3798 54.8551 13.4037 54.8551 13.809C54.8551 14.0736 54.7103 14.2397 54.478 14.2416C53.4803 14.2504 53.462 14.3454 53.3277 20.187C53.1884 26.2535 53.0583 26.9718 51.8288 28.4578C51.4743 28.8865 50.6287 29.509 49.9499 29.8412C48.8438 30.3825 48.4919 30.4447 46.5613 30.4412C44.7817 30.4375 44.2199 30.3515 43.33 29.9465C42.0311 29.3552 41.1863 28.5899 40.5635 27.4399C40.1288 26.6372 40.0917 26.2028 39.991 20.764C39.8757 14.5385 39.8199 14.2384 38.7799 14.2384ZM58.938 14.2384C58.4454 14.2384 58.3018 14.1414 58.3018 13.809C58.3018 13.4067 58.4394 13.3808 60.5098 13.3975L62.7179 13.415L63.7745 14.6316C64.3551 15.3007 66.2485 17.3939 67.9815 19.2828C69.7146 21.1719 71.7043 23.3694 72.4029 24.1663C73.1017 24.9634 73.7593 25.6154 73.8645 25.6154C73.9724 25.6154 74.0263 23.3641 73.9878 20.4446L73.9198 15.2739L73.3153 14.7562C72.9829 14.4713 72.4742 14.2384 72.1845 14.2384C71.7991 14.2384 71.658 14.1218 71.658 13.803C71.658 13.3838 71.768 13.3698 74.6199 13.4275C77.045 13.4763 77.582 13.5441 77.582 13.8004C77.582 13.983 77.2821 14.1746 76.8619 14.2602C76.466 14.341 76.0296 14.5188 75.8925 14.6553C75.7156 14.8315 75.6254 17.1102 75.5816 22.5133L75.5198 30.1231H74.8955C74.358 30.1231 73.7182 29.5183 70.2976 25.7763C68.1121 23.3854 65.5611 20.5439 64.6287 19.4619C63.6961 18.3798 62.8606 17.4862 62.7718 17.4764C62.5217 17.4484 62.5822 27.1164 62.8379 28.0341C63.0373 28.7492 63.1745 28.8723 64.0217 29.0983C64.704 29.28 64.9799 29.4645 64.9799 29.7384C64.9799 30.0901 64.7198 30.1231 61.964 30.1231C59.1587 30.1231 58.9481 30.0951 58.9481 29.7207C58.9481 29.4467 59.1511 29.2779 59.5846 29.1914C60.9 28.9293 60.9873 28.5133 61.0611 22.1536C61.1025 18.5917 61.0418 16.0995 60.9007 15.5776C60.6528 14.6601 60.035 14.2384 58.938 14.2384ZM81.5263 14.2384C81.0647 14.2384 80.9211 14.1364 80.9211 13.809C80.9211 13.3988 81.0647 13.3798 84.1524 13.3798C87.24 13.3798 87.3838 13.3988 87.3838 13.809C87.3838 14.1239 87.24 14.2384 86.8451 14.2384C86.549 14.2384 86.1088 14.4355 85.8671 14.6763C85.4404 15.1016 85.4294 15.3131 85.4902 21.885C85.5493 28.3005 85.5747 28.6717 85.9707 28.9601C86.2008 29.1276 86.6127 29.2645 86.8862 29.2645C87.24 29.2645 87.3838 29.3883 87.3838 29.6939C87.3838 30.1041 87.24 30.1231 84.1524 30.1231C81.1382 30.1231 80.9211 30.0961 80.9211 29.7214C80.9211 29.4192 81.1325 29.2857 81.7745 29.1834C83.0493 28.9803 83.1144 28.5644 83.035 21.1436C82.9715 15.2008 82.9441 14.8302 82.5494 14.5428C82.3193 14.3754 81.859 14.2384 81.5263 14.2384ZM104.066 14.2384C103.772 14.2384 103.548 14.0751 103.478 13.809C103.369 13.394 103.471 13.3798 106.576 13.3798C109.644 13.3798 109.787 13.3988 109.787 13.809C109.787 14.1389 109.644 14.2384 109.167 14.2384C107.811 14.2384 107.842 14.484 109.894 20.0977C110.939 22.9553 111.953 25.6698 112.148 26.1299L112.503 26.9664L114.148 22.588C116.085 17.4341 116.337 16.4809 116.008 15.541C115.778 14.8859 114.887 14.2384 114.214 14.2384C114.024 14.2384 113.881 14.0538 113.881 13.809C113.881 13.3982 114.024 13.3798 117.22 13.3798C120.415 13.3798 120.559 13.3982 120.559 13.809C120.559 14.1146 120.415 14.2384 120.061 14.2384C119.156 14.2384 118.756 14.7197 118.886 15.6546C119.02 16.6173 122.725 26.9623 122.881 26.8075C123.133 26.5557 127.237 15.4194 127.237 14.9852C127.237 14.4652 126.871 14.2384 126.034 14.2384C125.657 14.2384 125.513 14.1201 125.513 13.809C125.513 13.4037 125.657 13.3798 128.098 13.3798C130.291 13.3798 130.683 13.4305 130.683 13.7131C130.683 13.8963 130.415 14.1396 130.086 14.2534C129.348 14.51 129.163 14.8027 128.236 17.1745C127.829 18.216 126.556 21.4756 125.407 24.4177C124.673 26.2957 123.94 28.174 123.207 30.0526C123.147 30.2096 122.791 30.3379 122.416 30.3379H121.734L120.186 26.313C119.439 24.3713 118.694 22.4287 117.952 20.4853C117.305 18.786 117.25 18.7122 117.007 19.1972C116.865 19.4806 115.842 22.1078 114.734 25.0355L112.721 30.3589L111.969 30.2947L111.218 30.2306L108.351 22.7342C106.749 18.5461 105.277 15.0172 105.013 14.7381C104.754 14.4632 104.328 14.2384 104.066 14.2384ZM147.14 14.3294C147.104 14.2479 147.104 13.9548 147.104 13.9548C147.104 13.9548 147.096 13.8492 147.141 13.7927C147.185 13.7366 147.2 13.7351 147.359 13.7201L147.36 13.7199C147.942 13.6646 149.109 13.5714 150.083 13.529C150.172 13.5251 150.271 13.5206 150.379 13.5156H150.383C151.455 13.4668 153.373 13.4018 154.691 13.4676C157.221 13.5941 159.019 14.8166 159.632 16.8369C160.246 18.8571 159.921 20.7535 159.086 21.9607C158.25 23.1678 156.845 24.2071 154.509 24.1395C152.581 24.0837 152.065 23.7226 151.653 23.4342C151.566 23.3732 151.483 23.3154 151.393 23.2646V25.8409C151.414 27.5981 151.428 28.442 151.564 28.7544C151.748 29.1749 152.162 29.434 152.969 29.6326C152.969 29.6326 153.335 29.7182 153.429 29.8095C153.523 29.9009 153.523 30.1036 153.523 30.1036C153.523 30.1036 153.542 30.2932 153.467 30.3899C153.391 30.4865 153.245 30.4672 153.245 30.4672L149.669 30.4383L147.514 30.4327C147.514 30.4327 147.287 30.476 147.202 30.385C147.118 30.2939 147.125 30.1041 147.125 30.1041C147.125 30.1041 147.144 29.8997 147.243 29.8082C147.342 29.7166 147.71 29.6143 147.71 29.6143C148.542 29.3808 148.902 29.1339 149.091 28.6687C149.242 28.2937 149.243 27.5982 149.242 21.9228C149.24 16.5407 149.232 15.5367 149.109 15.2479C148.926 14.8205 148.469 14.7073 147.818 14.546H147.818C147.689 14.514 147.552 14.4802 147.408 14.4417C147.408 14.4417 147.176 14.411 147.14 14.3294ZM157.551 18.7212C157.551 19.6037 157.536 20.9855 156.596 21.8687C155.657 22.7519 153.807 22.9937 152.551 22.7477C152.155 22.6703 151.929 22.5508 151.755 22.4587L151.737 22.4495L151.416 22.2802L151.397 19.1794C151.385 17.2365 151.406 15.9707 151.451 15.7897C151.493 14.7651 153.004 14.6378 153.743 14.6758C156.902 14.6758 157.459 17.3373 157.551 18.7212ZM137.221 13.5C137.221 13.5 137.067 13.5593 136.833 13.6479L135.989 14.0836L135.382 15.5998C135.048 16.4339 134.437 17.9647 134.024 19.0019C133.437 20.4786 132.847 21.9538 132.253 23.4275C132.1 23.8086 131.636 24.9689 131.222 26.0061C130.809 27.0431 130.396 28.0301 130.304 28.1994C130.289 28.2275 130.272 28.2579 130.255 28.2899C130.024 28.7244 129.623 29.4791 128.913 29.5933C128.913 29.5933 128.523 29.6316 128.379 29.7742C128.235 29.917 128.249 30.0336 128.249 30.0336V30.2134C128.249 30.2134 128.262 30.3006 128.344 30.3439C128.425 30.3874 128.536 30.3899 128.536 30.3899L131.13 30.3604H133.812C133.812 30.3604 134.002 30.3825 134.075 30.3219C134.148 30.2612 134.168 30.1713 134.168 30.1713V29.982C134.168 29.982 134.131 29.7767 134.025 29.6966C133.918 29.6166 133.52 29.5618 133.52 29.5618C132.447 29.4207 132.262 28.6088 132.395 27.8786C132.46 27.5199 132.891 26.193 133.377 24.8571L133.545 24.3954L136.355 24.3739C137.9 24.3621 139.234 24.3701 139.32 24.3917C139.442 24.4226 139.612 24.7693 140.114 26.0042C140.873 27.8753 140.934 28.1032 140.766 28.4533C140.755 28.4746 140.745 28.4981 140.733 28.5234C140.575 28.862 140.269 29.5198 139.497 29.5868C139.497 29.5868 139.087 29.6009 138.985 29.7234C138.883 29.846 138.905 29.987 138.905 29.987V30.1743C138.905 30.1743 138.933 30.2841 138.985 30.3276C139.038 30.371 139.127 30.36 139.127 30.36L141.677 30.3417L145.262 30.3415C145.262 30.3415 145.403 30.3565 145.441 30.3026C145.479 30.2484 145.487 30.1848 145.487 30.1848V29.936C145.487 29.936 145.471 29.8037 145.403 29.7307C145.334 29.6579 144.869 29.5809 144.869 29.5809C144.275 29.4851 143.979 28.995 143.759 28.6299C143.703 28.5368 143.651 28.4518 143.601 28.3837C143.499 28.2445 143.135 27.4821 142.849 26.7488C142.564 26.0156 141.92 24.3591 141.418 23.068C140.916 21.7769 140.216 19.9758 139.862 19.0657C139.294 17.6047 138.726 16.1435 138.159 14.6821L138.159 14.6814C137.845 13.8712 137.718 13.5443 137.683 13.5001C137.571 13.3563 137.221 13.5 137.221 13.5ZM137.054 18.4303C136.905 18.0655 136.757 17.6999 136.611 17.3336C136.375 16.7373 136.285 16.6 136.212 16.7231C136.19 16.7591 136.041 17.1667 135.881 17.6288C134.841 20.6212 134.37 21.9687 134.276 22.2226C134.217 22.3822 134.168 22.5466 134.168 22.5881C134.168 22.6358 135.014 22.6636 136.463 22.6636C137.725 22.6636 138.757 22.6479 138.757 22.6288C138.757 22.6096 138.645 22.324 138.507 21.9938C138.369 21.6636 138.032 20.8393 137.758 20.1621C137.484 19.4848 137.167 18.7055 137.054 18.4303Z" fill="white"/>
</svg>
